<?xml version="1.0" encoding="UTF-8" standalone="no"?>
<!-- Created with Inkscape (http://www.inkscape.org/) -->

<svg
   version="1.1"
   id="svg1"
   width="1254"
   height="1254"
   viewBox="0 0 1254 1254"
   sodipodi:docname="Logo_cantina_vini.png"
   xmlns:inkscape="http://www.inkscape.org/namespaces/inkscape"
   xmlns:sodipodi="http://sodipodi.sourceforge.net/DTD/sodipodi-0.dtd"
   xmlns="http://www.w3.org/2000/svg"
   xmlns:svg="http://www.w3.org/2000/svg">
  <defs
     id="defs1" />
  <sodipodi:namedview
     id="namedview1"
     pagecolor="#ffffff"
     bordercolor="#000000"
     borderopacity="0.25"
     inkscape:showpageshadow="2"
     inkscape:pageopacity="0.0"
     inkscape:pagecheckerboard="0"
     inkscape:deskcolor="#d1d1d1">
    <inkscape:page
       x="0"
       y="0"
       width="1254"
       height="1254"
       id="page2"
       margin="0"
       bleed="0" />
  </sodipodi:namedview>
  <g
     inkscape:groupmode="layer"
     inkscape:label="Image"
     id="g1">
    <path
       style="fill:#000000"
       d="m 173.50804,1122.1598 c -1.8689,-1.3279 -4.2579,-2.4144 -5.309,-2.4144 -1.0512,0 -1.6331,-0.45 -1.2931,-1 0.3399,-0.55 1.3916,-1 2.3372,-1 0.9456,0 3.2814,-1.0704 5.1907,-2.3787 l 3.4716,-2.3788 2.8269,2.3788 2.827,2.3787 h 60.9233 c 39.9488,0 60.9233,0.3443 60.9233,1 0,0.6556 -20.7869,1 -60.3605,1 h -60.3604 l -3.684,2.5 c -2.0262,1.375 -3.7765,2.4615 -3.8895,2.4144 -0.1131,-0.047 -1.7347,-1.1721 -3.6035,-2.5 z m 865.57526,0.2301 c -2.8008,-2.1279 -3.2722,-2.1466 -60.79446,-2.4181 -37.3867,-0.1765 -57.7575,-0.6204 -57.3683,-1.25 0.3812,-0.6168 21.7298,-0.9764 57.9677,-0.9764 h 57.36416 l 2.8528,-2.4004 c 2.5999,-2.1877 3.0275,-2.2669 4.8267,-0.8933 1.0857,0.829 3.549,2.1912 5.474,3.0272 3.4919,1.5166 3.4943,1.5222 1.0512,2.4346 -1.3469,0.503 -3.8219,1.7485 -5.5,2.7678 -3.0032,1.824 -3.0956,1.8194 -5.8738,-0.2914 z m -746.02146,-39.6192 c -11.1163,-3.5515 -23.4352,-13.9037 -30.3744,-25.5253 -1.9705,-3.3 -4.8182,-7.35 -6.3283,-9 -1.5101,-1.65 -5.6578,-7.5 -9.2172,-13 -11.7522,-18.1598 -21.2492,-22.3956 -37,-16.5024 -16.2013,6.0617 -25.1324,36.0024 -10.7393,36.0024 1.0369,0 2.0938,0.3375 2.3488,0.75 0.255,0.4125 -7.7754,0.75 -17.8453,0.75 -17.5806,0 -21.4752,-0.5317 -14.0702,-1.9209 6.4461,-1.2093 11.8124,-7.6034 20.628,-24.5791 8.9454,-17.2257 31.3583,-63.37761 32.2945,-66.50001 1.6102,-5.36974 -7.9576,-14.41495 -15.3525,-14.51396 -3.0273,-0.0405 -3.2453,-0.19482 -1.6137,-1.14242 2.7565,-1.60099 13.4953,-0.45749 18.1431,1.93194 8.7423,4.49444 8.6445,4.30958 28.7537,54.30595 25.8659,64.3089 31.8774,72.9911 54.7169,79.0252 l 6.5,1.7172 -7.5,0.034 c -4.6574,0.021 -9.7151,-0.6734 -13.3441,-1.8329 z m -54.341,-83.40761 c -6.4982,-16.27217 -12.0399,-29.59114 -12.3149,-29.59769 -0.6021,-0.0144 -22.1245,45.1889 -21.712,45.6014 0.1587,0.1587 2.0713,-0.3465 4.2502,-1.1226 12.9525,-4.6133 25.7849,-1.3699 35.1012,8.8717 3.2233,3.5434 6.0023,6.3055 6.1755,6.1378 0.1732,-0.1676 -5.0018,-13.6184 -11.5,-29.89061 z m 154.3035,72.27011 c -16.6765,-3.915 -27.8369,-14.6014 -55.9609,-53.5839 l -3.7488,-5.1962 3.5456,-0.5538 c 1.9501,-0.3047 5.1488,-0.8046 7.1082,-1.1109 5.6482,-0.8832 13.0697,-8.6571 13.9501,-14.61261 2.3572,-15.94529 -6.8876,-24.2592 -26.264,-23.61931 l -8.7486,0.28891 v 38.17051 38.1705 l 2.4243,2.5795 c 1.3334,1.4187 3.2193,2.5795 4.191,2.5795 0.9716,0 1.9749,0.3375 2.2296,0.75 0.2546,0.4125 -5.976,0.75 -13.8458,0.75 -7.8698,0 -14.1,-0.3375 -13.8449,-0.75 0.2551,-0.4125 1.2588,-0.75 2.2305,-0.75 5.921,0 6.1153,-1.3258 6.1153,-41.7327 0,-41.40993 0.1955,-39.84156 -5.2571,-42.15732 -4.1533,-1.7639 34.0871,-2.28387 43.2018,-0.58743 17.142,3.19047 24.5243,20.63884 14.4455,34.14245 -2.735,3.6642 -13.396,9.335 -17.55,9.335 -3.7848,0 -3.6833,0.3055 2.4561,7.3891 2.913,3.361 10.3267,12.2504 16.4749,19.7542 16.991,20.7376 25.291,27.4405 37.7288,30.4691 l 5,1.2175 -6,-0.015 c -3.3,-0.01 -7.7467,-0.4255 -9.8816,-0.9267 z m 331.6044,-1.418 c -15.9457,-5.432 -25.8722,-14.8686 -47.1726,-44.8444 l -8.9239,-12.5585 3.4368,-0.5334 c 1.8903,-0.2934 5.0215,-0.7807 6.9582,-1.0828 7.0053,-1.0928 14.4141,-10.5522 14.4511,-18.45071 0.064,-13.67855 -8.979,-20.37491 -26.7238,-19.78891 l -8.7486,0.28891 v 38.17051 38.1705 l 2.4243,2.5795 c 1.3334,1.4187 3.2193,2.5795 4.191,2.5795 0.9716,0 1.9753,0.3375 2.2303,0.75 0.255,0.4125 -5.9753,0.75 -13.8452,0.75 -7.8698,0 -14.1003,-0.3375 -13.8456,-0.75 0.2548,-0.4125 1.304,-0.75 2.3316,-0.75 5.7065,0 6.0136,-2.1238 6.0136,-41.5878 0,-39.78774 -0.084,-40.41183 -5.7605,-42.57195 -4.7083,-1.7918 39.0294,-1.78042 45.2605,0.0118 21.8207,6.27614 23.6437,31.05395 3,40.77415 -2.75,1.2948 -6.2375,2.3587 -7.75,2.364 -3.974,0.014 -4.4853,-0.6856 25.3339,34.6673 11.5265,13.6656 20.5258,20.235 31.4161,22.9335 l 5,1.2389 -6,0.06 c -3.8982,0.039 -8.5493,-0.809 -13.2772,-2.4196 z m 319.38056,-4.1125 c -12.0311,-3.6937 -19.8337,-11.6624 -63.01626,-64.3573 -6.5354,-7.97501 -12.5122,-15.17501 -13.2818,-16.00001 -1.2006,-1.28707 -1.357,3.13774 -1.1023,31.17091 l 0.297,32.6709 2.4243,2.5791 c 1.3334,1.4185 3.2193,2.5791 4.191,2.5791 0.9716,0 1.9752,0.3375 2.2302,0.75 0.2549,0.4125 -5.1185,0.75 -11.941,0.75 -12.099,0 -15.4198,-0.6469 -9.4499,-1.8409 6.3281,-1.2657 6.495,-2.2698 6.8313,-41.1017 0.3032,-35.01828 0.301,-35.06177 -1.9912,-38.96235 -3.1075,-5.28806 -8.7321,-9.61957 -14.5082,-11.17288 l -4.7865,-1.28719 5.7392,-0.0675 c 13.9623,-0.16419 17.5063,2.67871 45.1471,36.21651 12.33686,14.96881 26.07176,31.41641 30.52216,36.55021 l 8.0915,9.3342 v -33.0371 c 0,-36.82867 -0.09,-37.40229 -6.3071,-40.04254 -3.8458,-1.63334 -3.8054,-1.64049 9.284,-1.64049 10.8492,0 12.5776,0.19162 9.8901,1.0965 -6.8637,2.31099 -6.7838,1.81368 -6.8986,42.95523 -0.057,20.35 -0.073,37.5726 -0.036,38.2723 0.2118,3.999 10.6281,12.318 18.5674,14.8289 l 4,1.265 h -4.5 c -2.475,0 -6.7035,-0.6793 -9.3966,-1.5062 z m -492.34076,-9.8714 c -23.3063,-5.0635 -39.1444,-27.5826 -35.3319,-50.2359 9.1831,-54.56448 95.0693,-48.38301 95.0693,6.8424 0,29.9618 -27.9869,50.2915 -59.7374,43.3935 z m 24.4524,-4.1074 c 26.8121,-9.086 33.0446,-49.2378 10.8945,-70.18644 -21.0744,-19.93131 -53.3535,-9.29167 -59.4852,19.60714 -6.7809,31.959 20.3131,60.1619 48.5907,50.5793 z m -13.6653,-29.2583 c -1.2311,-2.9723 -5.1708,-7.1232 -8.3631,-8.8116 -1.6094,-0.8511 -1.3726,-1.2506 2.1051,-3.5521 2.1634,-1.4317 4.8239,-4.4232 5.9401,-6.6793 l 2.0218,-4.08631 1.2587,3.03891 c 0.6923,1.6713 3.1781,4.7283 5.5239,6.7932 l 4.2652,3.7544 -2.889,1.658 c -1.5889,0.912 -4.1891,3.7083 -5.7782,6.2141 l -2.8894,4.5559 z m 308.9503,33.4399 c -56.43,-14.4465 -42.1538,-92.58745 16.1167,-88.21483 58.8352,4.415 57.3482,86.46043 -1.6167,89.20413 -5.7942,0.2696 -10.9591,-0.083 -14.5,-0.9893 z m 28.0198,-5.7257 c 20.1737,-9.2878 27.288,-38.5697 14.6219,-60.18284 -14.5548,-24.83579 -50.6264,-24.44284 -62.9305,0.68553 -17.1257,34.97511 15.1719,74.75301 48.3086,59.49731 z m -486.0187,5.429 c -6e-4,-0.1301 1.5767,-0.8958 3.5052,-1.7016 5.3389,-2.2307 5.495,-3.424 5.4789,-41.8769 -0.016,-38.41033 -0.101,-39.03009 -5.7098,-41.68491 -3.5743,-1.69183 34.4854,-2.19398 41.7246,-0.55051 19.5811,4.44538 22.9787,29.10351 5.0343,36.53632 -3.7798,1.5656 -3.9152,3.0088 -0.2843,3.031 9.42,0.057 19.3252,9.8755 20.0483,19.872 0.912,12.6076 -6.245,21.6632 -20.2983,25.6833 -2.5377,0.7259 -49.4956,1.3817 -49.4989,0.6913 z m 45.2178,-4.3074 c 24.5691,-6.8235 15.0868,-40.956 -11.3779,-40.956 -2.6626,0 -4.841,-0.45 -4.841,-1 0,-0.55 1.2375,-1.0025 2.75,-1.0056 12.1794,-0.025 20.0324,-8.5458 19.0288,-20.64795 -0.8916,-10.75171 -7.6254,-15.34646 -22.4907,-15.34646 h -9.2881 v 36.77751 c 0,39.6746 0.053,40.0904 5.357,42.2309 3.0148,1.2167 16.4136,1.183 20.8619,-0.052 z m 289.7824,4.0008 c -7e-4,-0.2988 1.4547,-0.9738 3.2342,-1.5 5.7164,-1.6904 5.7984,-2.3243 5.5189,-42.6721 -0.2814,-40.61232 -0.013,-38.99606 -6.8597,-41.31435 -2.3418,-0.79294 0.4296,-1.02282 12.0559,-1 l 15.0968,0.0296 -4.0346,1.71363 c -5.9289,2.51815 -6.0128,3.0996 -6.0128,41.62892 0,43.0558 -1.6516,39.1574 16.5888,39.1574 17.7679,0 22.122,-1.7114 26.714,-10.5 2.9537,-5.6532 3.1073,-2.4754 0.3368,6.9675 l -2.3377,7.9675 -30.1496,0.033 c -16.5823,0.018 -30.1502,-0.2119 -30.151,-0.5107 z M 602.95254,927.84889 c -2.0401,-4.52414 -8.9252,-11.45409 -12.5105,-12.59203 -2.0597,-0.65374 -1.8239,-0.96192 2.7244,-3.55955 4.9355,-2.81875 11.2153,-10.55508 11.2614,-13.87336 0.012,-0.86821 0.8425,0.22144 1.8454,2.42144 2.6357,5.78189 6.4249,9.87711 11.0824,11.97735 l 4.0752,1.83764 -4.8684,2.78045 c -4.4068,2.51683 -10.002,9.32158 -11.3302,13.77968 -0.2254,0.75631 -1.2512,-0.49092 -2.2797,-2.77162 z m -25.2306,-51.1251 c -65.7799,-3.7176 -110.0068,-16.25204 -116.7425,-33.08621 -1.4931,-3.73161 -2.4747,-51.89219 -1.0577,-51.89219 0.2112,0 2.4301,1.38099 4.9311,3.06886 47.0851,31.77736 235.4407,31.05401 280.5652,-1.07748 l 2.9879,-2.12757 v 25.3337 c 0,29.57838 -0.055,29.78373 -9.6799,36.38239 -24.424,16.74404 -95.6343,27.09294 -161.0041,23.3985 z m 137.7409,-30.01894 c 8.8065,-6.27077 4.4211,-20.95946 -6.2575,-20.95946 -13.0162,0 -16.3709,17.2941 -4.3842,22.60128 3.5559,1.57442 6.8355,1.06844 10.6417,-1.64182 z m 52.9431,25.79275 c 0,-4.2277 15.3301,-23.44935 22.4947,-28.20492 11.8716,-7.87994 33.1047,-11.01407 43.5053,-6.42165 l 3.5,1.54543 -7.5,0.73263 c -18.0129,1.75957 -42.2485,13.88674 -57.75,28.89733 -2.3375,2.26346 -4.25,3.8165 -4.25,3.45118 z m -336.4442,-7.37576 c -18.3324,-15.14608 -35.6467,-23.29222 -53.5558,-25.19727 l -7.5,-0.79781 4,-1.25745 c 20.9315,-6.58011 44.9044,1.89618 57.414,20.30028 3.318,4.88144 8.4156,13.58797 7.931,13.54572 -0.1898,-0.0166 -3.9199,-2.98361 -8.2892,-6.59347 z m -12.0558,-32.49024 c -112.1386,-70.48385 -145.1169,-113.11832 -156.0625,-201.75782 -1.8734,-15.17169 -1.5088,-16.02206 1.4373,-3.352 14.4433,62.1144 44.9859,103.29629 136.1252,183.54371 28.4789,25.07548 35.69,31.58771 35,31.60805 -0.275,0.008 -7.7,-4.51077 -16.5,-10.04194 z m 354.6179,7.91665 c 1.4399,-1.26657 9.0899,-8.17223 17,-15.34589 7.9101,-7.17367 19.7821,-17.69715 26.3821,-23.38552 75.7699,-65.30412 109.9276,-112.277 125.4903,-172.57145 3.5466,-13.74047 3.6566,-11.93828 0.5643,9.24695 -9.0715,62.14929 -34.1355,105.64634 -84.0546,145.8716 -19.6296,15.81771 -98.4713,67.69823 -85.3821,56.18431 z m -433.7855,-20.61014 c -8.1412,-2.88237 -20.3324,-15.04608 -20.3324,-20.28648 0,-3.3237 24.684,-2.27881 32.0808,1.35799 4.5318,2.22815 24.5628,18.50699 23.6944,19.25604 -1.7728,1.52922 -30.9603,1.25948 -35.4428,-0.32755 z m 501.0245,0.86586 -9.143,-0.55858 8.3787,-7.5 c 13.6404,-12.20987 19.0062,-14.5 33.9732,-14.5 6.7471,0 12.629,0.3615 13.0708,0.80333 1.422,1.42193 -3.8108,9.65519 -9.3596,14.72649 -8.4593,7.73129 -12.5801,8.51579 -36.9201,7.02876 z m -74.802,-18.30857 c 0.061,-6.9603 0.5843,-7.97109 16.6656,-32.20466 33.3487,-50.25458 75.2556,-91.11583 119.9143,-116.92214 5.1349,-2.96724 8.2478,-9.72348 15.4916,-33.62321 3.8315,-12.64133 3.9743,-12.31618 -4.3932,-9.99741 -49.5285,13.72511 -98.3529,44.89204 -140.5936,89.74741 -8.2976,8.81127 -7.6375,8.85441 -7.65,-0.5 l -0.01,-7.75 14.7773,-14.5 c 39.2384,-38.50208 84.5218,-64.55289 132.9527,-76.48551 l 11.2093,-2.76179 1.5546,-7.12635 c 4.1852,-19.18511 4.8096,-17.62808 -6.8262,-17.02434 -48.1278,2.49718 -96.6175,19.40914 -141.706,49.42335 l -11.559,7.69453 -2.1838,-4.46708 c -2.7362,-5.59698 -3.1578,-5.0404 10.6278,-14.02888 40.3207,-26.28997 90.1036,-43.28234 134.4687,-45.89815 5.937,-0.35006 10.437,-0.93302 10,-1.29548 -4.719,-3.91343 -31.5516,-13.98662 -49.3655,-18.53214 -43.2235,-11.02928 -100.5772,-7.3375 -141.9292,9.13582 -3.575,1.42416 -7.0625,2.81227 -7.75,3.08469 -0.9782,0.3876 -1.25,-4.51679 -1.25,-22.55266 0,-14.28663 -0.3801,-23.28291 -1,-23.66601 -2.3461,-1.44995 -1.1199,-6.5 1.5782,-6.5 h 2.5782 l -0.2362,-8.25 c -0.1897,-6.62302 0.1773,-9.13887 1.8611,-12.75725 1.1537,-2.47899 2.7066,-8.75133 3.451,-13.93855 l 1.3535,-9.4313 1.7469,9.93855 c 0.9607,5.4662 2.6599,11.96355 3.7758,14.43855 1.5909,3.5282 1.9602,6.11642 1.7103,11.98497 -0.2527,5.93385 -0.025,7.48808 1.0971,7.5 1.1712,0.0124 1.405,3.1692 1.3531,18.26977 -0.065,19.04201 0.023,19.50462 3.5575,18.58039 l 2.1735,-0.56839 v -42.19224 c 0,-35.54994 -0.2312,-42.49783 -1.4682,-44.13337 -0.8075,-1.06762 -1.4825,-3.1984 -1.5,-4.73507 l -0.032,-2.79394 13.0715,0.14864 c 14.5361,0.16529 15.7226,0.74806 12.6001,6.1887 -2.3687,4.12724 -2.4008,19.25677 -0.043,20.16164 1.4283,0.54811 1.591,2.56232 1.3212,16.35699 -0.6662,34.06571 -0.1748,45.23191 1.9908,45.23191 3.0696,0 3.0862,-0.17832 3.1761,-34.13132 0.047,-17.74917 0.5045,-33.41815 1.0167,-34.81995 1.0054,-2.75185 13.0419,-21.01002 13.8663,-21.0337 0.275,-0.008 3.7625,4.85783 7.75,10.81274 l 7.25,10.82711 v 32.17256 32.17256 h 3 3 l -0.032,-37.75 c -0.027,-31.60875 -0.2707,-38.06579 -1.5,-39.69113 -4.2904,-5.6723 -2.664,-6.55887 12.0318,-6.55887 14.6957,0 16.3221,0.88657 12.0318,6.55887 -2.7106,3.5837 -2.1981,77.09489 0.5435,77.96505 3.1518,1.00033 3.2273,0.6105 3.0041,-15.50105 l -0.2081,-15.02287 h 2.5643 c 1.4104,0 2.5644,-0.47829 2.5644,-1.06286 0,-0.58457 -0.9981,-0.92207 -2.2181,-0.75 -3.2803,0.46271 -3.8484,-11.61449 -0.8566,-18.21027 1.3593,-2.99658 2.038,-3.77328 2.0527,-2.34899 0.012,1.17033 0.7439,3.85573 1.6263,5.96756 2.9731,7.11566 4.5637,2.30584 4.3306,-13.09544 -0.1544,-10.19596 0.1575,-13.80788 1.4457,-16.74548 2.5987,-5.92626 4.5443,-14.43813 5.2985,-23.18143 0.7919,-9.18051 1.1156,-8.51009 3.764,7.79496 0.8816,5.42743 2.507,11.96974 3.612,14.53848 1.65,3.83554 3.7179,38.09762 2.2991,38.09386 -0.08,-2.2e-4 -1.5674,-2.2158 -3.3049,-4.92353 -5.0091,-7.80596 -5.1953,-7.82653 -9.63,-1.06374 -3.8799,5.91678 -5.326,7.15791 -5.519,4.73688 -0.055,-0.6875 -0.46,-0.125 -0.9003,1.25 -1.9005,5.93429 -1.1455,40 0.8865,40 1.7394,0 1.9161,-1.07785 2.266,-13.81841 0.3964,-14.43481 0.7256,-15.62342 5.803,-20.95428 l 2.1646,-2.27269 3.3718,4.03567 c 3.2636,3.90631 4.2593,6.99296 6.0266,18.68137 0.347,2.29442 1.2722,4.41779 2.0561,4.71862 1.0291,0.39491 1.4254,2.33283 1.4254,6.97135 0,6.69526 0.6274,7.63837 5.0818,7.63837 1.7384,0 1.9182,-0.78585 1.9182,-8.38569 0,-5.4977 0.5149,-9.37215 1.495,-11.25 1.1022,-2.11172 1.3287,-4.50648 0.8619,-9.11431 l -0.6331,-6.25 h 30.0791 c 16.5434,0 30.3153,-0.38229 30.6041,-0.84952 0.2887,-0.46724 0.096,-8.34985 -0.4288,-17.51692 -8.6243,-150.71409 -124.4269,-281.8897 -270.2282,-306.10146 l -3.75,-0.62273 v -5.92968 -5.92969 l 3.25,0.53841 c 187.1438,31.00322 310.914,210.74749 278.1297,403.91159 -11.3994,67.16502 -36.9606,120.79542 -77.6827,162.98757 l -5.8029,6.01243 6.4178,-9.5 c 11.5338,-17.07283 33.6881,-56.77033 33.6881,-60.36462 0,-2.25602 -29.2158,20.31223 -44.1025,34.06778 -27.7332,25.62584 -61.9424,66.14042 -82.3975,97.58482 -6.0377,9.28138 -6.0138,9.27549 -5.9451,1.46203 z m 165.8482,-245.50001 c 3.1275,-20.26017 3.2471,-34.98931 0.3194,-39.33383 -7.0156,-10.41041 -30.0581,-12.90758 -45.6596,-4.94826 -6.6858,3.41082 -8.0629,6.3842 -8.0629,17.40853 v 9.56769 l 5.75,1.66364 c 3.1625,0.915 6.3125,1.87572 7,2.13493 0.9564,0.36058 1.25,-2.32485 1.25,-11.43276 v -11.90404 l 3.9605,-3.86741 c 7.3878,-7.214 17.6043,-5.75961 23.7657,3.38319 2.1404,3.17615 2.2738,4.3573 2.2738,20.13415 v 16.76007 l 3.25,2.0092 c 4.6386,2.86772 5.5013,2.64689 6.1531,-1.5751 z m -16.4031,-19.0156 c 0,-16.4548 -1.2414,-20.84671 -6.4153,-22.696 -6.7039,-2.39619 -9.703,3.95434 -9.3491,19.79629 l 0.2644,11.8347 6.5,2.84287 c 9.6134,4.20455 9,5.00726 9,-11.77786 z m -186.1493,7.66777 3.1493,-1.09782 v -9.50105 c 0,-13.24481 -3.6905,-20.66752 -6.8395,-13.75625 -1.3362,2.93262 -1.6103,25.45295 -0.3098,25.45295 0.468,0 2.268,-0.49402 4,-1.09783 z m 21.5423,-8.48396 c 0.3338,-0.86998 0.6139,-6.38248 0.6223,-12.25 0.017,-11.69826 1.0042,-15.00315 3.5037,-11.72708 1.1077,1.4519 1.481,4.81236 1.481,13.33333 0,8.67525 0.2981,11.29018 1.25,10.96443 2.4313,-0.83207 1.2949,-39.74988 -1.3287,-45.50398 l -2.159,-4.73491 -2.3719,5.08387 c -2.1016,4.50443 -2.4531,7.12593 -3.0841,23 -0.3917,9.85387 -0.9798,16.56613 -1.3068,14.91613 -0.5806,-2.9285 -0.6065,-2.94042 -1.0858,-0.5 -0.6708,3.41532 0.01,6.16695 1.3195,5.35587 0.7028,-0.43438 0.8843,0.0868 0.5179,1.48776 -0.6629,2.53504 1.693,3.04743 2.6419,0.57458 z m 106.607,-12.51384 c 0,-14.07788 -3.5208,-19.65191 -7.9185,-12.53634 -1.7078,2.76337 -2.0815,4.99503 -2.0815,12.43045 0,9.9586 -0.1885,9.69698 7.25,10.06534 l 2.75,0.13618 z m -63.733,7.40123 c 3.9631,-2.29753 -1.9896,-45.8056 -6.267,-45.8056 -4.8802,0 -10.1565,36.83191 -6.603,46.09238 0.5592,1.45714 10.2337,1.24157 12.87,-0.28678 z m 22.7483,-11.11462 c 0.015,-9.22597 0.6668,-12.3758 2.5574,-12.35039 1.399,0.0188 2.2781,3.33069 2.4311,9.15941 0.079,3.025 0.4832,7.525 0.8972,10 l 0.7528,4.5 0.811,-3.89166 c 2.643,-12.68374 -2.203,-45.34652 -5.9714,-40.24824 -3.1489,4.26012 -5.5036,45.00029 -2.4934,43.1399 0.5535,-0.34211 1.0068,-4.94464 1.0153,-10.30902 z m -38.2131,-36.69098 c 0.7467,-13.87846 1.0096,-15.31777 3.515,-19.25 4.5535,-7.14674 11.3039,-4.61173 13.7669,5.17 1.2081,4.79771 2.9315,6.18532 2.8939,2.33 -0.035,-3.6209 -3.4492,-9.97924 -7.3512,-13.6916 l -3.6174,-3.44161 -3.1052,2.94161 c -7.4419,7.04984 -8.8845,11.43288 -8.8949,27.02493 0,7.74584 0.3188,14.41146 0.7198,14.8125 1.0981,1.09804 1.2015,0.30516 2.0731,-15.89583 z m -204.8022,322.44918 c -62.9384,-3.68751 -108.2109,-16.11033 -113.9364,-31.26428 -1.2135,-3.21167 -1.5111,-53.05043 -0.3136,-52.51823 0.4125,0.18333 3.675,1.99398 7.25,4.02366 52.2945,29.68984 232.2028,28.25666 277.75,-2.21261 l 3.25,-2.17412 v 26.87035 26.87036 l -2.9251,3.54856 c -14.9565,18.14494 -97.7966,31.14963 -171.0749,26.85631 z m 141.5179,-29.96598 c 8.0866,-7.59702 3.6424,-20.4832 -7.0644,-20.4832 -11.2145,0 -15.5786,15.67564 -6.0332,21.67079 3.8691,2.43005 9.8212,1.89034 13.0976,-1.18759 z m -281.5179,-36.8638 c -38.6327,-60.51862 -88.5651,-104.81019 -138.8133,-123.13158 -7.8924,-2.87772 -7.7284,-3.2678 -3.8108,9.06644 10.1564,31.97591 28.0077,68.31278 49.8373,101.44574 l 7.9062,12 -5.4052,-5.63065 c -96.0633,-100.06929 -110.9984,-279.44855 -33.744,-405.28568 52.9057,-86.17653 141.5878,-148.00506 231.0298,-161.07233 2.475,-0.36159 5.2875,-0.87989 6.25,-1.15178 1.5256,-0.43097 1.75,0.26674 1.75,5.44295 v 5.93728 l -6.25,1.20522 c -121.2265,23.37677 -215.4373,108.15068 -254.553,229.05499 -9.1505,28.28348 -16.3846,69.42668 -15.0333,85.5 l 0.3363,4 20,0.63871 c 22.0774,0.70506 35.3373,1.83509 58.3175,4.96995 8.4247,1.14925 15.6045,1.80268 15.9551,1.45206 2.0423,-2.04233 1.4042,-13.42624 -0.8535,-15.22541 -5.9421,-4.73532 -7.8696,-7.35712 -9.479,-12.89331 -6.1759,-21.2442 7.3302,-161.442 15.5526,-161.442 2.8094,0 3.5719,2.08244 5.8583,16 10.3417,62.95064 14.6119,128.36463 9.5728,146.64384 -1.3402,4.86179 -6.7495,11.35616 -9.4586,11.35616 -1.5169,0 -1.2387,17.98654 0.2848,18.41126 0.6875,0.19166 10.025,2.47108 20.75,5.06537 10.725,2.59428 20.0625,4.93584 20.75,5.20346 3.6869,1.43517 1.4175,-12.83236 -2.6379,-16.5837 -5.3371,-4.9371 -6.1,-8.59589 -6.1066,-29.28611 -0.011,-35.38909 8.2835,-105.83274 12.6593,-107.51191 3.4377,-1.31915 4.0857,1.05256 8.2901,30.34097 9.4215,65.6303 9.0448,102.68961 -1.097,107.93415 -2.9224,1.51122 -2.9359,1.55969 -2.6476,9.54972 l 0.2897,8.03079 13.2851,4.84431 c 15.985,5.82878 25.2015,9.62973 38.9001,16.0425 l 10.3148,4.82875 v 5.56522 c 0,6.76705 1.3066,6.81793 -14.432,-0.56199 -55.5872,-26.06528 -118.19,-40.45891 -189.3067,-43.52532 l -15.2613,-0.65804 v 9.15528 c 0,6.65288 0.3416,9.15769 1.25,9.16407 65.7428,0.46173 150.6439,26.85183 202.25,62.86609 16.6837,11.64305 16.5804,11.51053 10.25,13.14611 -2.3375,0.60393 -4.9929,1.31243 -5.9008,1.57443 -0.9255,0.26708 -4.4402,-1.45668 -8,-3.92356 -51.6262,-35.7761 -116.9814,-57.5881 -192.2212,-64.15294 l -6.8719,-0.5996 0.6968,9.29035 c 0.3832,5.10969 1.0121,10.83117 1.3974,12.71441 l 0.7006,3.42407 15.4745,2.2451 c 37.3512,5.41904 68.2604,14.97273 98.8067,30.54008 20.3881,10.39042 52.2093,32.15821 51.3603,35.13388 -0.1691,0.59284 -0.6191,3.44506 -1,6.33826 l -0.6924,5.26037 -8.5,-6.58157 c -41.2775,-31.96124 -99.0827,-56.06589 -148.3186,-61.84847 l -5.8185,-0.68336 0.6759,3.87378 c 1.3459,7.71299 5.6457,27.88324 6.026,28.26773 0.2144,0.21667 4.7874,1.82476 10.1624,3.57353 64.1187,20.86117 117.1554,70.94272 142.2472,134.3212 4.2576,10.75416 3.7178,10.81418 -2.9744,0.33073 z m 143,-3.23072 c -61.8617,-2.70073 -110.5591,-15.01577 -116.6061,-29.48838 -1.2761,-3.05405 -2.2331,-53.4003 -1.0151,-53.4003 0.2084,0 2.936,1.53983 6.0614,3.42184 47.3231,28.49647 235.9717,27.87789 278.3305,-0.91266 l 3.7293,-2.53469 0.2666,26.03024 c 0.3026,29.54359 0.244,29.82779 -7.2061,34.95362 -16.5203,11.36623 -56.936,19.3109 -112.0605,22.02812 -21.9733,1.08312 -24.5634,1.0782 -51.5,-0.0978 z m 137.0327,-28.40561 c 11.5444,-5.96985 4.2876,-24.89533 -8.2215,-21.4414 -5.7322,1.58276 -8.3112,5.18874 -8.3112,11.62092 0,9.3291 8.1366,14.16227 16.5327,9.82048 z m -154.0327,-42.60918 c -54.8472,-3.6806 -101,-16.6463 -101,-28.37389 0,-5.58034 14.6778,-13.68247 32.5,-17.93994 6.05,-1.44526 12.35,-2.96677 14,-3.38114 l 3,-0.7534 0.5083,-117.96276 0.5083,-117.96276 2.6394,-9.57377 c 6.3284,-22.95509 14.3954,-36.30568 34.5369,-57.15742 24.9006,-25.77853 23.668,-20.40548 24.0733,-104.93702 0.3231,-67.36725 0.3155,-67.67109 -1.7149,-68.31551 -4.5666,-1.44935 -5.0513,-2.98157 -5.0513,-15.96526 0,-8.62594 0.3738,-12.61582 1.25,-13.3417 5.255,-4.35353 74.2449,-4.35353 79.5,0 4.6169,3.82491 0.4822,29.79068 -4.7438,29.79068 -0.7718,0 -1.0013,19.6869 -0.7955,68.25 l 0.2893,68.25 2.3066,6.38657 c 3.5544,9.84127 8.3511,16.48816 22.0921,30.61343 18.4033,18.91793 28.0189,34.8692 33.8916,56.22265 l 2.689,9.77735 0.2914,118.02826 0.2914,118.02826 11.2395,2.62083 c 51.3205,11.9669 46.5602,29.28198 -11.218,40.80434 -36.0446,7.18815 -94.2797,10.03304 -141.0836,6.8922 z m 29.8932,-34.45286 c 22.237,-16.7159 25.735,-40.70478 12.0727,-82.7928 -5.9173,-18.22845 -9.9788,-26.91368 -16.7887,-35.90131 -2.8242,-3.72732 -4.2774,-6.31572 -3.2316,-5.75601 2.5246,1.35112 12.9835,11.62817 16.3128,16.02909 l 2.6477,3.5 0.047,-11.20078 c 0.05,-11.96143 -1.0648,-19.06123 -4.1085,-26.16171 -2.4983,-5.82846 -1.6894,-6.36407 1.5096,-0.99953 3.0628,5.13607 3.1147,5.02185 4.7394,-10.42736 1.363,-12.96224 2.8061,-13.78782 2.99,-1.71062 0.063,4.125 0.4072,9.975 0.7653,13 l 0.6511,5.5 2.7619,-4.69832 c 4.0803,-6.94118 4.7825,-6.60771 2.0335,0.96572 -3.6828,10.1458 -4.4749,15.74921 -3.7438,26.4826 0.6772,9.94154 1.3305,11.49443 3.1552,7.5 1.9097,-4.18043 10.3358,-13.68323 14.9444,-16.854 l 4.5792,-3.15058 -4.629,5.68315 c -5.1716,6.34935 -9.4426,14.28801 -13.0838,24.31957 -2.5983,7.15814 -2.0115,14.59201 1.9867,25.16905 7.9059,20.91429 7.8683,49.58149 -0.084,63.95876 -2.8257,5.10894 -2.853,5.22729 -1.0419,4.53231 0.7582,-0.29093 3.1207,1.08342 5.25,3.05411 2.1294,1.97069 4.9491,3.86295 6.2661,4.20503 6.3593,1.65178 41.4768,-2.17906 53.9245,-5.88243 l 4.319,-1.28497 0.3567,-75 c 0.4248,-89.31941 -0.1363,-105.5824 -4.0311,-116.85321 -8.3514,-24.16757 -26.9234,-39.37328 -72.1431,-59.06675 l -4.1795,-1.8202 -20.3205,10.05867 c -30.7012,15.19708 -41.8941,24.59204 -50.8497,42.68149 -7.8616,15.87957 -7.4708,10.10003 -7.4708,110.49527 v 89.49527 l 3.9277,1.28715 c 8.4737,2.77688 31.0031,5.79298 45.2232,6.05421 l 9.1509,0.1681 z m 1.2115,-12.01832 c -4.3881,-13.30294 -3.8188,-27.60205 1.6421,-41.24308 l 2.6497,-6.61879 2.6825,5.95563 c 2.4785,5.50294 2.6473,6.71756 2.2204,15.97958 -0.3252,7.05522 -0.037,11.38328 0.9732,14.61373 1.6248,5.19618 0.6197,8.1689 -5.0085,14.81293 l -2.8825,3.40272 z m 13.9911,-19.90271 c -0.3987,-15.90012 -13.2659,-42.4514 -28.9713,-59.78169 -3.3685,-3.71699 -6.1245,-6.98179 -6.1245,-7.25511 0,-0.94039 13.4792,10.04707 20.6399,16.8244 l 7.1716,6.7876 0.7478,-4.2876 0.7479,-4.2876 0.8878,3 c 0.4883,1.65 1.2901,5.025 1.7819,7.5 0.4918,2.475 1.845,7.13603 3.007,10.35785 2.8057,7.77863 3.6402,23.08503 1.6706,30.64215 l -1.4334,5.5 z m -49.8458,-45.06614 c -5.051,-3.02729 -5.2631,-4.40361 -1.205,-7.81833 6.1104,-5.14157 12.9964,-5.73057 18.2925,-1.56468 3.6671,2.88457 3.363,4.24974 -0.8375,3.75936 -4.8686,-0.56838 -4.4047,0.86116 0.5511,1.69843 4.7182,0.79714 4.6936,2.0864 -0.089,4.65124 -4.9495,2.65444 -11.5505,2.36768 -16.7123,-0.72602 z m 83.25,1.39575 c -6.4064,-3.55417 -6.1422,-5.58317 0.75,-5.75932 4.2013,-0.10738 3.2747,-2.07029 -0.9773,-2.07029 h -3.7273 l 2.531,-2.53102 c 4.9326,-4.93251 12.5343,-4.09428 19.2375,2.12128 3.4797,3.22662 3.1549,4.23617 -2.2898,7.11536 -4.7106,2.49104 -12.0962,3.02577 -15.5241,1.12399 z m -58.0114,-27.07961 c -2.1161,-4.26847 -3.9553,-5.10755 -2.4359,-1.11131 1.4531,3.82194 0.731,3.83991 -4.1745,0.10391 -5.1844,-3.94834 -7.1204,-8.69632 -6.2212,-15.25698 0.7317,-5.33827 0.6366,-5.31945 6.8778,-1.36142 7.647,4.84959 10.0171,9.65766 8.5653,17.3758 l -0.7525,4 z m 45.9835,-0.0469 c -1.4848,-7.91465 1.2543,-13.35782 8.9405,-17.76636 6.685,-3.83431 6.5874,-3.88044 6.5874,3.11292 0,7.39365 -1.7472,11.03025 -7.1956,14.97704 -4.7565,3.44557 -5.4515,3.26832 -3.9601,-1.0099 1.4231,-4.08254 -0.5439,-2.96088 -2.353,1.34172 l -1.3112,3.11842 z m -80.2129,-6.63029 c -5.0015,-3.62308 -10.4427,-13.71048 -8.1711,-15.14845 4.8498,-3.07005 16.1556,-0.1996 19.8944,5.05105 3.2538,4.56966 4.0317,10.63774 1.167,9.10462 -2.5639,-1.37215 -2.7845,-0.43917 -0.4945,2.09123 3.1254,3.45361 -7.3994,2.52095 -12.3958,-1.09845 z m 106.2408,-0.0728 c 3.131,-3.26815 2.3556,-3.98803 -1.4355,-1.33263 l -2.3805,1.66738 0.5966,-3.67688 c 1.5201,-9.36711 11.1691,-14.78898 21.4253,-12.0391 l 2.206,0.59147 -1.913,5.03472 c -3.3023,8.69093 -8.768,12.75504 -17.1539,12.75504 h -4.2192 z m -74.4269,-23.062 c -5.3323,-3.86271 -7.0731,-8.02349 -7.0731,-16.90588 0,-8.05028 0.1702,-8.15285 7.1895,-4.33245 6.3916,3.47874 9.8165,9.03413 9.7952,15.88819 -0.021,6.86488 -1.3192,8.59978 -3.4094,4.55776 -2.6611,-5.14601 -3.1583,-3.58806 -0.8311,2.60438 0.774,2.05964 -1.195,1.43052 -5.6711,-1.812 z m 43.5898,0.93689 c -2.8126,-10.50851 7.1667,-25.87489 16.8038,-25.87489 0.2933,0 0.5333,3.23292 0.5333,7.18428 0,9.37248 -2.5293,14.86952 -8.4339,18.32985 -5.3025,3.10743 -5.75,3.09962 -4.5414,-0.0792 1.7202,-4.52438 1.035,-5.05047 -1.3806,-1.06001 -2.2551,3.72555 -2.3701,3.78336 -2.9812,1.5 z m -71.3068,-3.41602 c -5.5889,-2.44966 -12.3561,-13.82753 -12.3561,-20.77447 0,-3.37781 15.5736,0.65393 20.1313,5.21166 5.6636,5.6636 8.0279,16.37681 2.687,12.1757 -4.1088,-3.23197 -4.5644,-2.43673 -0.8183,1.42824 l 3.3923,3.5 -4.9462,-0.0816 c -2.7204,-0.0449 -6.3609,-0.70167 -8.09,-1.45956 z m 99.59,-1.84349 c 3.8351,-4.02334 3.3815,-4.69695 -1.0418,-1.54729 -3.9346,2.80168 -3.9859,0.42594 -0.1543,-7.13878 3.4002,-6.71301 8.5539,-9.87449 17.4053,-10.67712 l 6.0691,-0.55031 -0.6873,3.39906 c -2.3901,11.82085 -9.3568,18.90991 -19.3473,19.68716 l -5.6898,0.44266 z m -62.3328,-19.64563 c -6.7508,-4.28121 -9.0672,-9.7858 -8.3132,-19.75495 0.6825,-9.02431 0.6001,-8.93415 5.3977,-5.90556 8.8048,5.55827 13.0407,13.58313 11.7418,22.24498 -0.5487,3.65871 -2.4396,6.47769 -2.4396,3.63691 0,-0.44488 -0.6689,-1.68238 -1.4863,-2.75 -1.3571,-1.77249 -1.3905,-1.65434 -0.3844,1.35992 1.5043,4.50646 0.9665,4.64561 -4.516,1.1687 z m 26.0573,0.13324 c -2.4093,-12.04645 1.9933,-21.18449 12.9794,-26.93998 2.8201,-1.47739 3.35,-0.0769 3.35,8.85368 0,10.0922 -3.0045,15.81416 -10.3056,19.62698 l -2.8055,1.46511 0.5641,-3.80439 0.5641,-3.80439 -1.838,3.97799 -1.8379,3.97798 z m -56.0154,-5.56164 c -7.2923,-2.60005 -11.0422,-7.90118 -12.6115,-17.82831 l -0.7788,-4.92628 3.9593,0.63311 c 10.4731,1.67471 17.7758,8.97408 17.7758,17.76767 0,2.62581 -0.2152,2.8788 -1.5242,1.7924 -2.0802,-1.7264 -2.9498,-0.59672 -1.0235,1.32958 3.0603,3.06022 0.7235,3.55675 -5.7971,1.23183 z m 86.3448,0.61364 c 0,-0.46476 0.9,-1.6595 2,-2.65499 1.1,-0.99549 2,-2.26867 2,-2.8293 0,-0.56063 -1.1848,0.0716 -2.6329,1.40499 l -2.6328,2.42431 0.7121,-4 c 1.6688,-9.37401 7.8702,-15.31756 17.8036,-17.06347 9.9644,-1.75137 0.4498,19.60864 -10.0311,22.51946 -4.5234,1.25627 -7.2189,1.33057 -7.2189,0.199 z m -42.3515,-13.91145 c -3.3981,-5.59271 -3.2232,-10.03231 0.6177,-15.68472 l 2.4856,-3.65793 2.6922,4.5939 c 3.4568,5.89845 3.4932,9.23014 0.1633,14.91219 -3.22,5.49455 -2.5093,5.51404 -5.9588,-0.16344 z m -37.35,-8.20306 c -5.3498,-3.26194 -9.2674,-19.08756 -5.3279,-21.52233 4.7794,-2.95385 14.4384,10.33461 13.2748,18.26291 -0.5613,3.82454 -0.8492,3.90901 -3.3019,0.96894 -2.0373,-2.44216 -2.6368,-0.91388 -0.9084,2.31574 1.3101,2.44789 0.3084,2.44112 -3.7366,-0.0253 z m 77.0945,0.45952 c 0.3338,-0.825 0.8801,-2.175 1.214,-3 1.0208,-2.52264 -1.1805,-1.66552 -2.6172,1.01908 -3.3722,6.30097 -4.0904,-4.9148 -0.7398,-11.55307 2.1236,-4.20743 8.1607,-8.90561 11.5,-8.94956 2.1518,-0.0283 1.6321,13.88396 -0.6479,17.34225 -2.9363,4.45366 -10.1554,8.71539 -8.7091,5.1413 z m -57.393,-10.31927 c -7.4775,-3.74181 -10.4813,-8.99441 -10.4922,-18.3474 -0.01,-8.27282 0.2182,-8.49044 6.1466,-5.86804 8.8172,3.90028 13.2824,10.36314 13.3236,19.28471 0.024,5.29934 -1.1119,6.00158 -3.5904,2.21879 -0.9122,-1.39216 -1.8586,-2.33121 -2.103,-2.08676 -0.2444,0.24444 0.3088,1.59407 1.2295,2.99916 2.7293,4.16548 1.3292,4.72362 -4.5141,1.79954 z m 36,1.25353 c 0,-0.31116 0.4658,-1.43616 1.0351,-2.5 0.5957,-1.11291 0.6411,-1.93426 0.107,-1.93426 -0.5105,0 -1.1872,0.675 -1.5038,1.5 -1.1948,3.11365 -2.6375,1.32155 -2.6164,-3.25 0.043,-9.18674 4.836,-15.86827 13.8382,-19.28886 l 5.1399,-1.95299 v 6.93083 c 0,8.00943 -1.0654,11.42529 -4.8137,15.43418 -3.3658,3.59989 -11.1863,7.13815 -11.1863,5.0611 z m -15.0153,-11.00995 c -0.011,-1.34879 -0.2547,-1.54726 -0.8157,-0.66361 -1.5317,2.4128 -6.3346,-4.34693 -7.517,-10.57963 -1.399,-7.3747 5.6758,-23.81371 9.0453,-21.01733 5.4376,4.51286 8.626,18.08265 5.916,25.17873 -2.0241,5.30009 -6.6039,10.19297 -6.6286,7.08184 z m 116.2653,172.32894 c -4.8088,-1.54259 -4.4136,-4.85665 1.0254,-8.59871 35.9148,-24.71009 83.8741,-40.39626 122.3529,-40.01828 13.2446,0.13011 13.5101,0.17169 5.8717,0.91996 -33.8079,3.31188 -81.6066,20.90968 -113.8064,41.89951 -5.9435,3.87435 -11.1185,6.99833 -11.5,6.94218 -0.3815,-0.0562 -2.1561,-0.57124 -3.9436,-1.14466 z m 146.3168,-88.25325 c -2.4664,-5.25194 -4.4005,-21.93544 -2.8338,-24.44406 0.6216,-0.99535 1.4399,-3.46111 1.8186,-5.47946 1.8156,-9.67796 4.0466,3.31526 3.421,19.92352 l -0.5274,14 z m -92.7805,-95.70053 c 0.276,-34.70197 0.2124,-36.13651 -1.75,-39.46242 -3.7763,-6.40047 -3.9311,-6.33705 15.4637,-6.33705 18.8186,0 19.2181,0.12751 15.75,5.02749 -1.5683,2.21579 -1.8019,6.3661 -2.25,39.97251 l -0.5,37.5 -4,-5.91679 -4,-5.91678 -0.01,-26.58322 c -0.01,-27.75674 -0.7082,-32.32172 -5.1881,-33.81502 -3.9157,-1.30526 -4.7868,4.14407 -5.3045,33.18403 l -0.5,28.04778 -3.263,4.69898 c -1.7946,2.58444 -3.5946,4.9043 -4,5.15525 -0.4053,0.25096 -0.6082,-15.74869 -0.4507,-35.55476 z m -28.0336,18.45053 c -0.3739,-7.5055 -0.1467,-10.29717 0.9869,-12.1269 2.608,-4.20912 6.256,-20.55197 6.259,-28.03977 0,-5.58874 0.6932,-3.27451 2.8823,9.65349 1.1801,6.96915 3.0765,14.28726 4.4053,17 3.08,6.28731 2.8566,23.26318 -0.3061,23.26318 -1.5122,0 -1.9398,-1.14463 -2.522,-6.75 -1.3784,-13.27134 -7.4581,-12.214 -7.4581,1.29705 0,4.671 -0.2697,5.45295 -1.8808,5.45295 -1.6791,0 -1.9327,-1.04499 -2.3665,-9.75 z m 65.0544,0 c -0.365,-8.2508 -0.1424,-10.24146 1.4478,-12.94617 2.0753,-3.52993 5.7113,-19.70222 5.7319,-25.49481 0.01,-2.03004 0.4632,-3.9691 1.0132,-4.30902 0.6113,-0.37782 1,1.17034 1,3.98314 0,6.09892 2.6264,18.67876 5.3275,25.51686 3.2724,8.2846 2.6959,23 -0.901,23 -2.3324,0 -2.4265,-0.2656 -2.4265,-6.84501 0,-5.4897 -0.3818,-7.19047 -1.9279,-8.58975 -2.6946,-2.43849 -5.0721,2.19523 -5.0721,9.8851 0,4.76567 -0.2657,5.54966 -1.8808,5.54966 -1.6828,0 -1.9261,-1.0257 -2.3121,-9.75 z m -34.9734,-82 c -0.3606,-12.36186 -0.2853,-12.92504 2.4752,-18.49999 3.3506,-6.76664 6.1034,-19.38361 7.8921,-36.17117 0.7078,-6.64336 1.4134,-10.50384 1.568,-8.57884 1.8006,22.42401 5.4766,40.53143 9.5415,47 2.0236,3.22029 2.1725,4.51894 1.8629,16.25 l -0.3365,12.75 h -3.4185 -3.4184 v -8.25 c 0,-8.58132 -2.4796,-15.3915 -5.2762,-14.51381 -2.7272,0.85591 -4.717,7.18701 -4.7185,15.01381 v 7.75 h -2.8972 -2.8972 z M 567.01914,100.17985 c -2.2152,-5.772692 0.3987,-14.207158 5.0618,-16.332968 8.7792,-4.002331 60.2198,-3.639572 67.1831,0.473775 4.1115,2.428736 5.5062,6.140407 4.649,12.372661 l -0.6942,5.047562 -5.6565,-0.74775 c -7.4112,-0.9797 -54.7672,-0.96586 -63.2932,0.0185 -5.6205,0.64892 -6.7307,0.52155 -7.25,-0.83179 z"
       id="path1" />
  </g>
</svg>
